<svg width="24" height="24" viewBox="0 0 24 24" fill="none" xmlns="http://www.w3.org/2000/svg">
<path d="M13.4595 2.59652C14.1249 1.83609 15.2948 1.79713 16.0093 2.51162L21.4875 7.98983C22.202 8.70432 22.163 9.87417 21.4026 10.5395L19.1074 12.5478L11.4512 4.89172L13.4595 2.59652Z" fill="black"/>
<path d="M10.2819 5.84277L18.1572 13.7179L15.9242 19.5237C15.8284 19.7728 15.6073 19.952 15.3437 19.9942L3.06072 21.9999L8.67494 16.3857C9.1053 16.6217 9.55115 16.713 9.93356 16.747C10.3461 16.7837 10.7104 16.479 10.747 16.0664C10.7837 15.6538 10.479 15.2896 10.0664 15.2529C9.71028 15.2212 9.40896 15.1275 9.16755 14.9061C9.15621 14.8931 9.14435 14.8804 9.13196 14.868C9.11958 14.8556 9.10686 14.8437 9.09385 14.8324C8.87241 14.591 8.77872 14.2897 8.74704 13.9335C8.71035 13.5209 8.34614 13.2162 7.93356 13.2529C7.52097 13.2896 7.21625 13.6538 7.25294 14.0664C7.28695 14.4488 7.37825 14.8946 7.61428 15.325L2 20.9393L4.0057 8.65619C4.04786 8.39268 4.22711 8.17154 4.47617 8.07575L10.2819 5.84277Z" fill="black"/>
</svg>
