<svg width="24" height="24" viewBox="0 0 24 24" fill="none" xmlns="http://www.w3.org/2000/svg">
<path d="M17.7177 1.72553C17.4655 1.0915 16.5344 1.09148 16.2822 1.72553L16.2392 1.87103C16.0108 2.98872 15.1773 3.87797 14.0918 4.18549L13.871 4.2392C13.043 4.40869 13.043 5.59118 13.871 5.76068C15.0633 6.00436 15.9955 6.93664 16.2392 8.12885C16.4087 8.95688 17.5912 8.95688 17.7607 8.12885C18.0044 6.93664 18.9367 6.00436 20.1289 5.76068C20.9569 5.59118 20.9569 4.4087 20.1289 4.2392C19.0112 4.01075 18.1219 3.17732 17.8144 2.09174L17.7607 1.87103L17.7177 1.72553Z" fill="black"/>
<path d="M15.1416 1.25C14.9915 1.90112 14.3809 2.79851 13.7607 2.97852L13.5742 3.02539C11.4598 3.50147 11.4755 6.54578 13.6201 6.98535C14.3213 7.12883 14.8701 7.67865 15.0136 8.37988C15.4078 10.3038 17.8975 10.5124 18.75 9.00879V20C18.75 21.5188 17.5187 22.75 16 22.75H6C4.48122 22.75 3.25 21.5188 3.25 20V4C3.25 2.48122 4.48122 1.25 6 1.25H15.1416ZM11 18C10.4477 18 10 18.4477 10 19C10 19.5523 10.4477 20 11 20C11.5522 20 12 19.5523 12 19C12 18.4477 11.5522 18 11 18Z" fill="black"/>
</svg>
