<svg width="24" height="24" viewBox="0 0 24 24" fill="none" xmlns="http://www.w3.org/2000/svg">
<path fill-rule="evenodd" clip-rule="evenodd" d="M6.6532 16.0034C7.02407 15.6329 7.62502 15.633 7.99597 16.0034C8.36697 16.3744 8.36697 16.9762 7.99597 17.3472L3.24597 22.0972C2.87497 22.468 2.27416 22.4681 1.9032 22.0972C1.53224 21.7262 1.53234 21.1254 1.9032 20.7544L6.6532 16.0034ZM9.50281 18.854C9.87381 18.483 10.4756 18.483 10.8466 18.854C11.2174 19.2249 11.2173 19.8258 10.8466 20.1968L8.94617 22.0972C8.57519 22.4681 7.97438 22.4681 7.60339 22.0972C7.23242 21.7262 7.23248 21.1254 7.60339 20.7544L9.50281 18.854ZM21.3807 1.87551C21.7922 1.87929 22.1239 2.21399 22.1239 2.62551C22.1238 6.18367 21.2891 9.4607 19.4208 11.3472L16.6884 14.3032L17.1718 15.6948C17.5175 16.6903 17.2634 17.7962 16.5184 18.5415L15.4042 19.6558C15.2637 19.7961 15.0725 19.8754 14.8739 19.8755C14.6752 19.8754 14.4842 19.7962 14.3436 19.6558L4.3446 9.65579C4.05174 9.3629 4.05173 8.88714 4.3446 8.59426L5.45789 7.48098C6.20332 6.73574 7.30986 6.48166 8.30554 6.82766L9.69519 7.31008L12.6522 4.57863C13.6168 3.62513 15.0544 2.95225 16.5731 2.51906C18.1174 2.07865 19.8249 1.863 21.3807 1.87551ZM3.80261 13.1538C4.17361 12.7828 4.77536 12.7828 5.14636 13.1538C5.51737 13.5248 5.51737 14.1266 5.14636 14.4976L3.24597 16.397C2.87496 16.7679 2.27417 16.768 1.9032 16.397C1.53224 16.026 1.53229 15.4252 1.9032 15.0542L3.80261 13.1538ZM16.8749 5.62551C16.0465 5.62552 15.3749 6.2971 15.3749 7.12551C15.3751 7.95374 16.0466 8.6255 16.8749 8.62551C17.703 8.62533 18.3747 7.95364 18.3749 7.12551C18.3749 6.29719 17.7032 5.62568 16.8749 5.62551Z" fill="black"/>
</svg>
