<svg width="24" height="24" viewBox="0 0 24 24" fill="none" xmlns="http://www.w3.org/2000/svg">
<path d="M21.75 19C21.75 20.5188 20.5188 21.75 19 21.75H9.75V8.75H21.75V19ZM8.25 8.75V21.75H5C3.48122 21.75 2.25 20.5188 2.25 19V8.75H8.25ZM13 15.25C12.5858 15.25 12.25 15.5858 12.25 16C12.25 16.4142 12.5858 16.75 13 16.75H15C15.4142 16.75 15.75 16.4142 15.75 16C15.75 15.5858 15.4142 15.25 15 15.25H13ZM13 11.25C12.5858 11.25 12.25 11.5858 12.25 12C12.25 12.4142 12.5858 12.75 13 12.75H17C17.4142 12.75 17.75 12.4142 17.75 12C17.75 11.5858 17.4142 11.25 17 11.25H13ZM19 2.25C20.5188 2.25 21.75 3.48122 21.75 5V7.25H2.25V5C2.25 3.48122 3.48122 2.25 5 2.25H19Z" fill="black"/>
</svg>
