<svg width="24" height="24" viewBox="0 0 24 24" fill="none" xmlns="http://www.w3.org/2000/svg">
<path d="M20.275 13.45C20.8134 13.45 21.25 13.0135 21.25 12.475V4.675C21.25 3.05957 19.9404 1.75 18.325 1.75H4.675C3.05957 1.75 1.75 3.05957 1.75 4.675V18.325C1.75 19.9405 3.05957 21.25 4.675 21.25H12.475C13.0134 21.25 13.45 20.8135 13.45 20.275C13.45 19.7365 13.0134 19.3 12.475 19.3H4.675C4.13652 19.3 3.7 18.8635 3.7 18.325V7.575H19.3V12.475C19.3 13.0135 19.7365 13.45 20.275 13.45Z" fill="black"/>
<path d="M19.2177 15.2256C18.9655 14.5915 18.0344 14.5915 17.7822 15.2256L17.7392 15.3711C17.5108 16.4888 16.6773 17.378 15.5918 17.6855L15.371 17.7392C14.543 17.9087 14.543 19.0912 15.371 19.2607C16.5633 19.5044 17.4955 20.4367 17.7392 21.6289C17.9087 22.4569 19.0912 22.4569 19.2607 21.6289C19.5044 20.4367 20.4367 19.5044 21.6289 19.2607C22.4569 19.0912 22.4569 17.9087 21.6289 17.7392C20.5112 17.5108 19.6219 16.6774 19.3144 15.5918L19.2607 15.3711L19.2177 15.2256Z" fill="black"/>
</svg>
