<svg width="250" height="30" viewBox="0 0 250 30" fill="none" xmlns="http://www.w3.org/2000/svg">
<g clip-path="url(#clip0_419_310)">
<mask id="mask0_419_310" style="mask-type:luminance" maskUnits="userSpaceOnUse" x="0" y="0" width="250" height="30">
<path d="M250 0H0V30H250V0Z" fill="white"/>
</mask>
<g mask="url(#mask0_419_310)">
<path d="M42.8349 29.1128H28.5566L42.8349 14.8345H57.1131L42.8349 29.1128Z" fill="#141414"/>
<path d="M42.8349 14.8344H28.5566L42.8349 0.556152H57.1131L42.8349 14.8344Z" fill="#141414"/>
<path d="M14.2783 29.1128H28.5566L14.2783 14.8345H0L14.2783 29.1128Z" fill="#141414"/>
<path d="M14.2783 14.8345H28.5566L14.2783 0.556152H0L14.2783 14.8345Z" fill="#141414"/>
<path d="M77.5851 0.556152L84.9281 23.2407H85.2496L92.5926 0.556152H98.6256V1.14954L88.8716 29.1128H81.1576L71.3916 1.14954V0.556152H77.5851Z" fill="#141414"/>
<path d="M115.598 0C124.858 0 130.47 5.53825 130.47 14.8346C130.47 24.131 124.858 29.6692 115.598 29.6692C106.339 29.6692 100.727 24.1186 100.727 14.8346C100.727 5.5506 106.339 0 115.598 0ZM115.598 24.5884C121.075 24.5884 124.289 21.0033 124.289 14.8346C124.289 8.6659 121.075 5.08085 115.598 5.08085C110.122 5.08085 106.932 8.6535 106.932 14.8346C106.932 21.0157 110.122 24.5884 115.598 24.5884Z" fill="#141414"/>
<path d="M141.708 0.556152V23.8959H155.813V29.1127H135.601V0.556152H141.708Z" fill="#141414"/>
<path d="M179.622 0.556152V5.69883H170.005V29.1251H163.898V5.69883H154.28V0.556152H179.622Z" fill="#141414"/>
<path d="M190.513 0.556152V29.1127H184.406V0.556152H190.513Z" fill="#141414"/>
<path d="M216.671 0.556152V5.50103H202.949V12.3991H215.064V17.3192H202.949V29.1251H196.904V0.556152H216.671Z" fill="#141414"/>
<path d="M229.046 0.556152L236.08 12.5598H236.402L243.461 0.556152H250V1.14954L239.233 18.642V29.1127H233.126V18.642L222.334 1.14954V0.556152H229.034H229.046Z" fill="#141414"/>
</g>
</g>
<defs>
<clipPath id="clip0_419_310">
<rect width="250" height="30" fill="white"/>
</clipPath>
</defs>
</svg>
