<svg width="198" height="51" viewBox="0 0 198 51" fill="none" xmlns="http://www.w3.org/2000/svg">
<path d="M178.441 36.6242C178.292 36.6242 178.068 36.5309 177.769 36.3442C177.508 36.1202 177.303 35.9336 177.153 35.7842C176.892 35.4856 176.724 35.1869 176.649 34.8882C176.612 34.5896 176.593 33.9176 176.593 32.8722C176.593 31.6776 176.836 30.3896 177.321 29.0082C177.807 27.5896 178.628 25.6109 179.785 23.0722L181.633 19.1522C181.783 18.8536 181.913 18.6296 182.025 18.4802C182.175 18.3309 182.305 18.1816 182.417 18.0322C182.567 18.0322 182.697 18.0322 182.809 18.0322C182.921 18.0322 182.977 18.0322 182.977 18.0322C183.276 18.0322 183.575 18.2189 183.873 18.5922C184.172 18.9282 184.396 19.3016 184.545 19.7122C184.545 20.1976 184.471 20.7016 184.321 21.2242C184.209 21.7469 183.761 22.5309 182.977 23.5762C182.716 23.9869 182.361 24.6776 181.913 25.6482C181.503 26.6189 181.223 27.4589 181.073 28.1682C181.036 28.2056 180.961 28.3736 180.849 28.6722C180.737 28.9336 180.607 29.2322 180.457 29.5682C180.345 29.9042 180.215 30.2216 180.065 30.5202L179.785 31.7522L183.537 27.8882C185.292 26.1336 186.711 24.8829 187.793 24.1362C188.876 23.3896 189.735 23.0722 190.369 23.1842C191.004 23.2962 191.545 23.8002 191.993 24.6962C192.255 25.1069 192.441 25.4802 192.553 25.8162C192.703 26.1149 192.796 26.5256 192.833 27.0482C192.871 27.5709 192.833 28.3549 192.721 29.4002V32.8722C193.281 32.7229 193.729 32.5922 194.065 32.4802C194.401 32.3309 194.756 32.1816 195.129 32.0322C195.465 31.8829 195.857 31.7522 196.305 31.6402C196.753 31.4909 197.313 31.3976 197.985 31.3602C197.948 31.8456 197.78 32.3682 197.481 32.9282C197.183 33.4509 196.809 33.9549 196.361 34.4402C195.913 34.9256 195.409 35.3176 194.849 35.6162C194.327 35.9149 193.804 36.0642 193.281 36.0642C192.796 36.0642 192.255 35.8216 191.657 35.3362C191.06 34.8509 190.631 34.3096 190.369 33.7122C190.22 33.3016 190.127 32.8536 190.089 32.3682C190.089 31.8829 190.089 30.9869 190.089 29.6802V27.6082C190.089 27.0109 189.903 26.8429 189.529 27.1042C189.193 27.3282 188.913 27.5336 188.689 27.7202C188.129 28.2056 187.532 28.7656 186.897 29.4002C186.3 30.0349 185.684 30.6882 185.049 31.3602C183.332 33.1522 181.895 34.4776 180.737 35.3362C179.617 36.1949 178.852 36.6242 178.441 36.6242Z" fill="black"></path>
<path d="M153.38 37.0722C153.231 36.7736 153.044 36.5496 152.82 36.4002C152.596 36.2136 152.484 36.0456 152.484 35.8962C152.484 35.7469 152.465 35.5976 152.428 35.4482C152.428 35.2616 152.353 35.0936 152.204 34.9442C152.017 34.7202 152.036 34.2162 152.26 33.4322C152.484 32.6109 152.857 31.6216 153.38 30.4642C153.903 29.2696 154.519 28.0189 155.228 26.7122C155.527 26.4136 155.825 26.0216 156.124 25.5362C156.423 25.0509 156.647 24.7336 156.796 24.5842C156.796 24.4349 156.852 24.3042 156.964 24.1922C157.076 24.0429 157.207 23.9682 157.356 23.9682V23.6322C157.356 23.4456 157.524 23.1282 157.86 22.6802C158.233 22.2322 158.681 21.7469 159.204 21.2242C159.727 20.6642 160.268 20.1416 160.828 19.6562C161.388 19.1336 161.855 18.7602 162.228 18.5362C163.012 18.0136 163.815 17.6962 164.636 17.5842C165.495 17.4722 166.223 17.6589 166.82 18.1442C166.932 18.2562 167.119 18.4429 167.38 18.7042C167.641 18.9656 167.94 19.2642 168.276 19.6002C168.649 19.8989 169.023 20.2162 169.396 20.5522L171.468 22.4002L170.46 25.2002C169.975 26.6936 169.844 28.0002 170.068 29.1202C170.329 30.2402 170.703 31.2109 171.188 32.0322C171.375 32.4429 171.748 32.8349 172.308 33.2082C172.905 33.5816 173.465 33.8056 173.988 33.8802C174.287 33.9176 174.567 34.0296 174.828 34.2162C175.089 34.4029 175.22 34.7016 175.22 35.1122C175.22 35.4856 175.145 35.7842 174.996 36.0082C174.847 36.2322 174.585 36.3816 174.212 36.4562C172.98 36.6056 171.823 36.3069 170.74 35.5602C169.695 34.8136 168.724 33.5816 167.828 31.8642C167.679 31.6402 167.473 31.2296 167.212 30.6322C166.988 29.9976 166.857 29.5869 166.82 29.4002C166.671 29.5869 166.391 29.9416 165.98 30.4642C165.569 30.9496 165.252 31.3042 165.028 31.5282C162.377 34.2162 160.081 36.0269 158.14 36.9602C156.236 37.8562 154.649 37.8936 153.38 37.0722ZM155.396 33.9362C155.396 34.1976 155.788 34.1976 156.572 33.9362C157.393 33.6376 158.271 33.1149 159.204 32.3682C160.473 31.2856 161.743 30.0909 163.012 28.7842C164.319 27.4776 165.364 26.2642 166.148 25.1442L167.38 23.1282C167.007 22.2696 166.596 21.6909 166.148 21.3922C165.737 21.0562 165.383 20.8882 165.084 20.8882C164.599 20.8882 163.871 21.3362 162.9 22.2322C161.967 23.1282 160.959 24.3229 159.876 25.8162C158.793 27.3096 157.767 28.9522 156.796 30.7442C156.423 31.4909 156.087 32.2189 155.788 32.9282C155.527 33.6002 155.396 33.9362 155.396 33.9362Z" fill="black"></path>
<path d="M143.129 38.9762C142.606 38.8268 142.177 38.6588 141.841 38.4722C141.505 38.2482 141.057 37.8935 140.497 37.4082C140.049 36.8108 139.694 36.2508 139.433 35.7282C139.209 35.2055 139.06 34.6082 138.985 33.9362C138.91 33.2268 138.873 32.3308 138.873 31.2482C138.873 30.8002 138.948 30.1282 139.097 29.2322C139.284 28.3362 139.489 27.4028 139.713 26.4322C139.974 25.4242 140.198 24.5282 140.385 23.7442C140.609 22.9602 140.74 22.4562 140.777 22.2322C140.889 21.7468 140.702 21.4668 140.217 21.3922C139.732 21.3175 139.19 21.2988 138.593 21.3362C138.033 21.3362 137.66 21.2802 137.473 21.1682C137.324 21.1308 137.249 21.0748 137.249 21.0002C137.249 20.8882 137.249 20.8322 137.249 20.8322C137.249 20.6828 137.23 20.5895 137.193 20.5522C137.193 20.4775 137.137 20.3468 137.025 20.1602C136.95 20.0108 136.988 19.8055 137.137 19.5442C137.324 19.2455 137.622 19.0588 138.033 18.9842C138.369 18.9095 138.817 18.8535 139.377 18.8162C139.974 18.7415 140.572 18.6108 141.169 18.4242C141.766 18.2002 142.252 17.8642 142.625 17.4162C142.961 16.5948 143.353 15.6802 143.801 14.6722C144.249 13.6642 144.678 12.7682 145.089 11.9842C145.537 11.1628 145.836 10.6588 145.985 10.4722C146.62 10.1362 147.086 10.0055 147.385 10.0802C147.684 10.1175 148.02 10.4348 148.393 11.0322C148.58 11.2935 148.71 11.4988 148.785 11.6482C148.897 11.7975 148.916 12.0215 148.841 12.3202C148.766 12.6188 148.561 13.0855 148.225 13.7202C147.926 14.3548 147.46 15.2695 146.825 16.4642C146.638 16.8375 146.47 17.1735 146.321 17.4722C146.172 17.7335 146.097 17.8642 146.097 17.8642C146.246 17.9015 146.47 17.9202 146.769 17.9202C147.068 17.9202 147.441 17.9015 147.889 17.8642C148.3 17.7895 148.822 17.7335 149.457 17.6962C150.092 17.6215 150.596 17.6215 150.969 17.6962C151.828 17.6962 152.462 17.8642 152.873 18.2002C153.284 18.4988 153.508 19.0215 153.545 19.7682C153.62 20.1788 153.526 20.4215 153.265 20.4962C153.041 20.5708 152.425 20.6082 151.417 20.6082C151.081 20.6082 150.558 20.6268 149.849 20.6642C149.14 20.7015 148.393 20.7388 147.609 20.7762C146.862 20.8135 146.209 20.8695 145.649 20.9442C145.126 20.9815 144.865 21.0375 144.865 21.1122C144.753 21.1868 144.566 21.5415 144.305 22.1762C144.081 22.8108 143.838 23.5388 143.577 24.3602C143.353 25.1442 143.148 25.8535 142.961 26.4882C142.7 27.7575 142.494 29.0268 142.345 30.2962C142.233 31.5655 142.214 32.6668 142.289 33.6002C142.364 34.5335 142.569 35.1868 142.905 35.5602C143.241 35.8962 143.894 35.9708 144.865 35.7842C145.836 35.5602 146.62 35.2055 147.217 34.7202C147.889 34.1602 148.43 33.8802 148.841 33.8802C149.289 33.8802 149.532 34.0855 149.569 34.4962C149.644 34.8695 149.438 35.4108 148.953 36.1202C148.505 36.7922 147.945 37.3895 147.273 37.9122C146.601 38.3975 145.892 38.7522 145.145 38.9762C144.436 39.1628 143.764 39.1628 143.129 38.9762Z" fill="black"></path>
<path d="M118.312 37.2402C117.864 37.3148 117.379 37.2402 116.856 37.0162C116.334 36.7922 115.867 36.4748 115.456 36.0642C115.083 35.6535 114.84 35.2242 114.728 34.7762C114.579 33.9922 114.672 33.0215 115.008 31.8642C115.382 30.6695 115.904 29.4188 116.576 28.1122C117.286 26.7682 118.07 25.4802 118.928 24.2482C119.824 23.0162 120.739 21.9522 121.672 21.0562C122.643 20.1228 123.539 19.4882 124.36 19.1522C124.771 18.8908 125.088 18.7228 125.312 18.6482C125.574 18.5362 125.835 18.5175 126.096 18.5922C126.395 18.6668 126.824 18.8535 127.384 19.1522C127.907 19.3015 128.299 19.4695 128.56 19.6562C128.822 19.8428 129.158 20.2162 129.568 20.7762C129.867 21.3362 130.091 21.8962 130.24 22.4562C130.39 23.0162 130.52 23.6508 130.632 24.3602C130.931 25.2935 131.043 25.9095 130.968 26.2082C130.894 26.4695 130.782 26.6748 130.632 26.8242C130.334 27.1975 130.259 27.3842 130.408 27.3842C130.408 27.3842 130.39 27.4588 130.352 27.6082C130.352 27.7202 130.278 27.9068 130.128 28.1682C129.867 28.9895 129.662 29.8482 129.512 30.7442C129.4 31.6028 129.419 32.3122 129.568 32.8722C129.867 33.6935 130.408 34.1788 131.192 34.3282C131.976 34.4775 132.779 34.1415 133.6 33.3202C134.011 33.0215 134.403 32.7602 134.776 32.5362C135.15 32.2748 135.336 32.2935 135.336 32.5922C135.336 32.5922 135.392 32.6482 135.504 32.7602C135.616 32.8348 135.747 32.8722 135.896 32.8722C136.083 32.8722 136.195 32.9468 136.232 33.0962C136.307 33.2455 136.307 33.4508 136.232 33.7122C136.195 33.9362 136.083 34.1975 135.896 34.4962C135.336 35.0562 135.056 35.4295 135.056 35.6162C135.056 35.6162 134.982 35.6908 134.832 35.8402C134.72 35.9522 134.515 36.1388 134.216 36.4002C133.544 36.8108 132.686 37.0162 131.64 37.0162C130.632 37.0162 129.848 36.8108 129.288 36.4002C128.728 35.9895 128.206 35.4295 127.72 34.7202C127.272 34.0108 126.974 33.3948 126.824 32.8722L126.544 32.3122L124.92 33.3762C124.51 33.7868 124.062 34.1788 123.576 34.5522C123.128 34.9255 122.83 35.1868 122.68 35.3362C122.568 35.4855 122.438 35.6162 122.288 35.7282C122.176 35.8402 122.046 35.8962 121.896 35.8962C121.747 35.8962 121.616 35.8962 121.504 35.8962C121.392 35.8962 121.336 35.8962 121.336 35.8962C121.336 36.0455 121.15 36.2322 120.776 36.4562C120.44 36.6802 120.03 36.8668 119.544 37.0162C119.096 37.1655 118.686 37.2402 118.312 37.2402ZM117.752 34.2162C117.976 34.2162 118.368 34.0482 118.928 33.7122C119.526 33.3388 120.179 32.9095 120.888 32.4242C121.635 31.9388 122.288 31.4535 122.848 30.9682C123.446 30.4828 123.856 30.1095 124.08 29.8482C124.23 29.6988 124.472 29.4562 124.808 29.1202C125.144 28.7468 125.443 28.4295 125.704 28.1682C126.563 27.1975 127.16 26.1335 127.496 24.9762C127.832 23.7815 127.795 22.8482 127.384 22.1762C127.235 21.7655 127.048 21.5415 126.824 21.5042C126.6 21.4668 126.134 21.5975 125.424 21.8962C124.976 22.1575 124.416 22.6615 123.744 23.4082C123.11 24.1175 122.419 24.9575 121.672 25.9282C120.963 26.8615 120.291 27.8322 119.656 28.8402C119.022 29.8482 118.499 30.7815 118.088 31.6402C117.678 32.4988 117.472 33.1708 117.472 33.6562C117.472 33.8055 117.51 33.9362 117.584 34.0482C117.696 34.1602 117.752 34.2162 117.752 34.2162Z" fill="black"></path>
<path d="M87.0389 44.24C87.0389 44.24 86.9082 44.184 86.6469 44.072C86.4229 43.9973 86.1615 43.9787 85.8629 44.016C85.2655 43.904 84.8175 43.5867 84.5189 43.064C84.2575 42.5787 84.1829 42.0373 84.2949 41.44C84.4442 41.2907 84.5375 40.9733 84.5749 40.488C84.6495 40.0027 84.6869 39.6107 84.6869 39.312C84.7989 39.0133 84.8735 38.7893 84.9109 38.64C84.9482 38.4907 85.0415 38.1173 85.1909 37.52C85.2655 36.8853 85.4149 36.008 85.6389 34.888C85.9002 33.7307 86.1802 32.4987 86.4789 31.192C86.7775 29.848 87.0762 28.5787 87.3749 27.384C87.7109 26.152 87.9909 25.1253 88.2149 24.304C88.4762 23.4827 88.6629 23.016 88.7749 22.904C88.7749 22.904 88.7749 22.848 88.7749 22.736C88.7749 22.5867 88.7562 22.4373 88.7189 22.288C88.7189 22.288 88.7375 22.12 88.7749 21.784C88.8495 21.4107 89.0175 20.9813 89.2789 20.496C89.4282 20.0853 89.5402 19.6373 89.6149 19.152C89.7269 18.6667 89.7829 18.3493 89.7829 18.2C89.9322 18.0133 90.1189 17.5653 90.3429 16.856C90.6042 16.1093 90.8655 15.3627 91.1269 14.616C91.3135 14.0187 91.5189 13.384 91.7429 12.712C92.0042 12.04 92.2282 11.4613 92.4149 10.976C92.6389 10.4533 92.7509 10.192 92.7509 10.192C92.7509 10.0427 92.7509 9.968 92.7509 9.968C92.7509 9.93067 92.7509 9.912 92.7509 9.912C92.8629 9.76267 93.1802 8.99733 93.7029 7.616C94.2629 6.23467 95.0095 4.44267 95.9429 2.24C96.0922 1.94133 96.2602 1.60533 96.4469 1.232C96.6709 0.858665 96.7829 0.597331 96.7829 0.447998C96.9695 0.149333 97.2309 0 97.5669 0C97.9029 0 98.2389 0.112 98.5749 0.335999C98.9482 0.522666 99.2282 0.821332 99.4149 1.232L100.031 2.128L98.1269 6.216C97.6042 7.26133 97.1562 8.232 96.7829 9.128C96.4095 9.98667 96.2229 10.4907 96.2229 10.64C96.2229 10.64 96.1109 10.9387 95.8869 11.536C95.7002 12.1333 95.4575 12.8613 95.1589 13.72C94.8975 14.5413 94.6735 15.288 94.4869 15.96C94.1135 17.1547 93.7589 18.1253 93.4229 18.872C93.1242 19.6187 92.9749 20.0667 92.9749 20.216C92.9749 20.1413 93.3855 20.0853 94.2069 20.048C95.0282 19.9733 96.0735 19.9173 97.3429 19.88C98.6122 19.8053 99.9002 19.7493 101.207 19.712C102.551 19.6373 103.727 19.5627 104.735 19.488C105.78 19.4133 106.49 19.3387 106.863 19.264L109.719 18.928L111.455 13.104C111.716 12.0213 112.052 10.7333 112.463 9.24C112.911 7.74667 113.303 6.45867 113.639 5.376C114.162 3.62133 114.591 2.53867 114.927 2.128C115.263 1.71733 115.655 1.512 116.103 1.512C116.252 1.47467 116.495 1.53066 116.831 1.68C117.204 1.82933 117.466 2.05333 117.615 2.352C118.1 2.72533 118.324 3.17333 118.287 3.696C118.287 4.21867 118.007 4.928 117.447 5.824C116.924 6.832 116.476 7.93333 116.103 9.128C115.767 10.3227 115.45 11.2933 115.151 12.04C115.188 12.488 115.151 12.8613 115.039 13.16C114.927 13.4213 114.796 13.6453 114.647 13.832C114.572 13.9067 114.423 14.1867 114.199 14.672C114.012 15.1573 113.826 15.6427 113.639 16.128C113.49 16.6133 113.415 16.912 113.415 17.024C113.452 17.2853 113.415 17.6213 113.303 18.032C113.191 18.4053 113.06 18.6667 112.911 18.816C112.874 19.04 112.743 19.6187 112.519 20.552C112.295 21.448 112.015 22.512 111.679 23.744C111.38 24.9387 111.063 26.1147 110.727 27.272C110.428 28.4293 110.13 29.3813 109.831 30.128C109.868 30.3893 109.794 30.7253 109.607 31.136C109.42 31.5093 109.346 31.8453 109.383 32.144C109.234 32.592 109.047 33.1707 108.823 33.88C108.636 34.552 108.562 34.9813 108.599 35.168C108.45 36.0267 108.282 36.904 108.095 37.8C107.908 38.696 107.759 39.4613 107.647 40.096C107.535 40.768 107.479 41.16 107.479 41.272C107.367 41.4213 107.143 41.44 106.807 41.328C106.508 41.2533 106.154 41.1413 105.743 40.992C105.034 40.5813 104.604 40.152 104.455 39.704C104.306 39.256 104.418 38.6027 104.791 37.744C104.978 37.4453 105.183 36.6987 105.407 35.504C105.668 34.3093 105.93 33.1333 106.191 31.976C106.378 31.416 106.583 30.6507 106.807 29.68C107.031 28.7093 107.255 27.7387 107.479 26.768C107.703 25.7973 107.89 24.9573 108.039 24.248C108.226 23.5387 108.356 23.1467 108.431 23.072C108.431 22.9227 108.431 22.792 108.431 22.68C108.431 22.568 108.431 22.512 108.431 22.512C108.356 22.4373 107.89 22.4 107.031 22.4C106.172 22.3627 105.108 22.3627 103.839 22.4C102.57 22.4373 101.244 22.512 99.8629 22.624C98.5189 22.736 97.3055 22.8853 96.2229 23.072C95.8122 23.1093 95.3455 23.128 94.8229 23.128C94.3002 23.128 93.8895 23.1467 93.5909 23.184C93.1802 23.184 92.8255 23.2027 92.5269 23.24C92.2655 23.24 92.1349 23.24 92.1349 23.24C92.0975 23.352 91.9669 23.744 91.7429 24.416C91.5562 25.088 91.3322 25.9093 91.0709 26.88C90.8095 27.8133 90.5295 28.784 90.2309 29.792C89.9695 30.8 89.7455 31.7147 89.5589 32.536C89.3722 33.32 89.2602 33.8987 89.2229 34.272C89.1109 34.944 88.9429 35.8027 88.7189 36.848C88.4949 37.856 88.2522 38.8827 87.9909 39.928C87.7669 40.9733 87.5615 41.888 87.3749 42.672C87.2255 43.4933 87.1135 44.016 87.0389 44.24Z" fill="black"></path>
<path d="M67.0631 37.3521C66.5031 37.2774 66.0177 36.8854 65.6071 36.1761C65.2337 35.4294 65.0097 34.7574 64.9351 34.1601C64.9724 33.8614 65.0097 33.4321 65.0471 32.8721C65.1217 32.3121 65.1964 31.7334 65.2711 31.1361C65.4204 30.4267 65.6257 29.5681 65.8871 28.5601C66.1484 27.5147 66.4097 26.4694 66.6711 25.4241C66.9697 24.3787 67.2311 23.4827 67.4551 22.7361C67.6791 21.9894 67.8284 21.5414 67.9031 21.3921C68.0897 21.0934 68.3884 21.0187 68.7991 21.1681C69.2097 21.3174 69.5457 21.5414 69.8071 21.8401C70.0311 22.1387 70.1617 22.4934 70.1991 22.9041C70.2737 23.3147 70.2177 23.9121 70.0311 24.6961C69.8817 25.4801 69.5831 26.6374 69.1351 28.1681C68.7244 29.6614 68.4071 30.8747 68.1831 31.8081C67.9964 32.7041 67.9217 33.6561 67.9591 34.6641C67.8097 35.9334 67.6977 36.7174 67.6231 37.0161C67.5484 37.2774 67.3617 37.3894 67.0631 37.3521ZM73.5031 15.0081C73.3537 15.1201 73.2044 15.1761 73.0551 15.1761C72.9431 15.1387 72.7377 15.0267 72.4391 14.8401C72.1777 14.8027 71.8417 14.6347 71.4311 14.3361C71.0577 14.0001 70.7217 13.6641 70.4231 13.3281C70.1617 12.9547 70.0311 12.7307 70.0311 12.6561C69.9937 12.2827 70.0124 11.8161 70.0871 11.2561C70.1991 10.6587 70.4044 10.1361 70.7031 9.68805C71.0017 9.20272 71.4311 8.94139 71.9911 8.90405C72.1404 8.90405 72.2711 8.92272 72.3831 8.96005C72.4951 8.99739 72.8311 9.12805 73.3911 9.35205C73.6897 9.91205 73.9884 10.5467 74.2871 11.2561C74.5857 11.9281 74.7164 12.6001 74.6791 13.2721C74.6417 13.9067 74.2497 14.4854 73.5031 15.0081Z" fill="black"></path>
<path d="M51.9168 49.7841C50.8715 50.1948 49.7701 50.1201 48.6128 49.5601C47.4928 49.0375 46.5221 48.1975 45.7008 47.0401C45.5515 46.8161 45.3648 46.4615 45.1408 45.9761C44.9541 45.5281 44.7675 45.0615 44.5808 44.5761C44.4315 44.0908 44.3381 43.6615 44.3008 43.2881C44.2635 42.9148 44.3008 42.6908 44.4128 42.6161C44.5248 42.5041 44.7115 42.4668 44.9728 42.5041C45.2341 42.5415 45.4768 42.6348 45.7008 42.7841C45.9621 42.9335 46.1301 43.1201 46.2048 43.3441C46.3168 43.6055 46.4848 43.9415 46.7088 44.3521C46.9701 44.7628 47.2501 45.1361 47.5488 45.4721C47.8475 45.8081 48.0715 45.9948 48.2208 46.0321C48.9301 46.3681 49.4528 46.5175 49.7888 46.4801C50.1248 46.4428 50.4235 46.3308 50.6848 46.1441C51.3195 45.6588 51.8421 45.0241 52.2528 44.2401C52.6635 43.4561 53.1301 42.2428 53.6528 40.6001C54.0635 39.2188 54.4741 37.7628 54.8848 36.2321C55.3328 34.6641 55.7248 33.4508 56.0608 32.5921C56.1728 32.1441 56.3035 31.7708 56.4528 31.4721C56.6395 31.1361 56.8075 30.8935 56.9568 30.7441H57.2928C56.4715 31.2668 55.7435 31.8641 55.1088 32.5361C54.4741 33.2081 53.6715 33.7495 52.7008 34.1601C52.4768 34.4215 51.9168 34.5895 51.0208 34.6641C50.1621 34.7015 49.3221 34.5895 48.5008 34.3281C47.9781 34.0295 47.5861 33.8055 47.3248 33.6561C47.1008 33.5068 46.9141 33.3015 46.7648 33.0401C46.6528 32.7788 46.4848 32.3681 46.2608 31.8081C45.9995 31.2481 45.9621 30.3335 46.1488 29.0641C46.3355 27.7948 46.6715 26.5255 47.1568 25.2561C47.6048 24.3228 48.2581 23.3148 49.1168 22.2321C49.9755 21.1495 50.8901 20.1788 51.8608 19.3201C52.8315 18.4241 53.7088 17.8641 54.4928 17.6401C54.7915 17.4908 55.1088 17.3975 55.4448 17.3601C55.8181 17.2855 56.3408 17.3415 57.0128 17.5281C57.6475 17.6028 58.1328 17.7521 58.4688 17.9761C58.8048 18.1628 59.3461 18.5735 60.0928 19.2081C60.5781 19.6935 60.9701 20.1788 61.2688 20.6641C61.6048 21.1495 61.8661 21.6535 62.0528 22.1761C62.3141 22.7361 62.4075 23.2588 62.3328 23.7441C62.2955 24.1921 62.0901 24.6588 61.7168 25.1441C61.3808 25.6295 61.0261 26.1148 60.6528 26.6001C60.2795 27.0855 59.9995 27.7575 59.8128 28.6161C59.6261 29.7361 59.3275 31.0055 58.9168 32.4241C58.5061 33.8055 58.1515 35.0935 57.8528 36.2881L56.9568 39.7601C56.0235 42.9335 55.1275 45.2855 54.2688 46.8161C53.4475 48.3841 52.6635 49.3735 51.9168 49.7841ZM49.9008 31.8641C50.6475 31.8268 51.3568 31.6775 52.0288 31.4161C52.7008 31.1548 53.3541 30.7255 53.9888 30.1281C54.6235 29.4935 55.2581 28.6908 55.8928 27.7201C56.5275 26.8241 56.9755 25.8908 57.2368 24.9201C57.4981 23.9121 57.5915 22.9415 57.5168 22.0081C57.4795 21.4108 57.3861 21.0188 57.2368 20.8321C57.0875 20.6455 56.7701 20.5895 56.2848 20.6641C55.5755 20.7761 54.7915 21.1681 53.9328 21.8401C53.0741 22.4748 52.2715 23.2775 51.5248 24.2481C50.9648 24.9948 50.4981 25.8908 50.1248 26.9361C49.7515 28.0561 49.5275 29.1201 49.4528 30.1281C49.3781 31.1361 49.5275 31.7148 49.9008 31.8641Z" fill="black"></path>
<path d="M23.6635 37.0722C23.5142 36.7736 23.3275 36.5496 23.1035 36.4002C22.8795 36.2136 22.7675 36.0456 22.7675 35.8962C22.7675 35.7469 22.7488 35.5976 22.7115 35.4482C22.7115 35.2616 22.6368 35.0936 22.4875 34.9442C22.3008 34.7202 22.3195 34.2162 22.5435 33.4322C22.7675 32.6109 23.1408 31.6216 23.6635 30.4642C24.1862 29.2696 24.8022 28.0189 25.5115 26.7122C25.8102 26.4136 26.1088 26.0216 26.4075 25.5362C26.7062 25.0509 26.9302 24.7336 27.0795 24.5842C27.0795 24.4349 27.1355 24.3042 27.2475 24.1922C27.3595 24.0429 27.4902 23.9682 27.6395 23.9682V23.6322C27.6395 23.4456 27.8075 23.1282 28.1435 22.6802C28.5168 22.2322 28.9648 21.7469 29.4875 21.2242C30.0102 20.6642 30.5515 20.1416 31.1115 19.6562C31.6715 19.1336 32.1382 18.7602 32.5115 18.5362C33.2955 18.0136 34.0982 17.6962 34.9195 17.5842C35.7782 17.4722 36.5062 17.6589 37.1035 18.1442C37.2155 18.2562 37.4022 18.4429 37.6635 18.7042C37.9248 18.9656 38.2235 19.2642 38.5595 19.6002C38.9328 19.8989 39.3062 20.2162 39.6795 20.5522L41.7515 22.4002L40.7435 25.2002C40.2582 26.6936 40.1275 28.0002 40.3515 29.1202C40.6128 30.2402 40.9862 31.2109 41.4715 32.0322C41.6582 32.4429 42.0315 32.8349 42.5915 33.2082C43.1888 33.5816 43.7488 33.8056 44.2715 33.8802C44.5702 33.9176 44.8502 34.0296 45.1115 34.2162C45.3728 34.4029 45.5035 34.7016 45.5035 35.1122C45.5035 35.4856 45.4288 35.7842 45.2795 36.0082C45.1302 36.2322 44.8688 36.3816 44.4955 36.4562C43.2635 36.6056 42.1062 36.3069 41.0235 35.5602C39.9782 34.8136 39.0075 33.5816 38.1115 31.8642C37.9622 31.6402 37.7568 31.2296 37.4955 30.6322C37.2715 29.9976 37.1408 29.5869 37.1035 29.4002C36.9542 29.5869 36.6742 29.9416 36.2635 30.4642C35.8528 30.9496 35.5355 31.3042 35.3115 31.5282C32.6608 34.2162 30.3648 36.0269 28.4235 36.9602C26.5195 37.8562 24.9328 37.8936 23.6635 37.0722ZM25.6795 33.9362C25.6795 34.1976 26.0715 34.1976 26.8555 33.9362C27.6768 33.6376 28.5542 33.1149 29.4875 32.3682C30.7568 31.2856 32.0262 30.0909 33.2955 28.7842C34.6022 27.4776 35.6475 26.2642 36.4315 25.1442L37.6635 23.1282C37.2902 22.2696 36.8795 21.6909 36.4315 21.3922C36.0208 21.0562 35.6662 20.8882 35.3675 20.8882C34.8822 20.8882 34.1542 21.3362 33.1835 22.2322C32.2502 23.1282 31.2422 24.3229 30.1595 25.8162C29.0768 27.3096 28.0502 28.9522 27.0795 30.7442C26.7062 31.4909 26.3702 32.2189 26.0715 32.9282C25.8102 33.6002 25.6795 33.9362 25.6795 33.9362Z" fill="black"></path>
<path d="M6.888 41.8881C6.216 41.7015 5.67467 41.5335 5.264 41.3841C4.85333 41.2721 4.648 41.2161 4.648 41.2161C4.72267 41.0295 4.68533 40.8615 4.536 40.7121C4.424 40.5628 4.16267 40.4695 3.752 40.4321C3.192 40.0961 2.66933 39.6668 2.184 39.1441C1.736 38.6588 1.36267 38.1735 1.064 37.6881C0.765333 37.2028 0.541333 36.7921 0.392 36.4561C0.130667 35.8961 0 35.5601 0 35.4481C0.0373329 35.2988 0.261333 35.1308 0.672 34.9441C1.08267 34.6455 1.38133 34.5521 1.568 34.6641C1.792 34.7761 2.05333 35.1495 2.352 35.7841C2.83733 36.6428 3.65867 37.2961 4.816 37.7441C6.01067 38.1921 7.336 38.3975 8.792 38.3601C10.2853 38.2855 11.704 37.9495 13.048 37.3521C14.4293 36.7921 15.288 36.2135 15.624 35.6161C15.9973 34.9815 15.8667 34.1788 15.232 33.2081C15.12 32.9095 14.9893 32.6668 14.84 32.4801C14.6907 32.2935 14.448 32.0508 14.112 31.7521C13.8133 31.4535 13.3093 30.9681 12.6 30.2961C12.04 30.0348 11.5173 29.7921 11.032 29.5681C10.584 29.3441 10.0987 29.1015 9.576 28.8401C8.97867 28.5415 8.25067 28.1121 7.392 27.5521C6.57067 26.9548 5.78667 26.3015 5.04 25.5921C4.29333 24.8828 3.752 24.2295 3.416 23.6321C2.81867 23.0721 2.37067 22.3068 2.072 21.3361C1.77333 20.3281 1.66133 19.2641 1.736 18.1441C1.81067 17.0241 2.09067 16.0161 2.576 15.1201C2.8 14.5975 3.17333 13.9628 3.696 13.2161C4.256 12.4321 4.872 11.6481 5.544 10.8641C6.216 10.0801 6.86933 9.37079 7.504 8.73612C8.13867 8.10145 8.66133 7.65345 9.072 7.39212C9.37067 7.09345 9.688 6.79479 10.024 6.49612C10.36 6.16012 10.528 5.99212 10.528 5.99212C10.5653 5.80545 10.6213 5.71212 10.696 5.71212C10.808 5.71212 10.864 5.71212 10.864 5.71212C11.0507 5.60012 11.4613 5.41345 12.096 5.15212C12.7307 4.89079 13.4213 4.40545 14.168 3.69612C16.6693 2.50145 18.704 1.62412 20.272 1.06412C21.84 0.504121 23.128 0.224121 24.136 0.224121C25.0693 0.261454 25.9093 0.485453 26.656 0.896119C27.44 1.26945 28.0747 1.77345 28.56 2.40812C29.0827 3.04279 29.4 3.80812 29.512 4.70412C29.7733 5.60012 29.6987 6.64545 29.288 7.84012C28.8773 8.99745 28.2613 10.0988 27.44 11.1441C26.656 12.1521 25.7973 12.9175 24.864 13.4401C23.8187 13.8881 23.1093 14.0935 22.736 14.0561C22.4 13.9815 22.2507 13.5895 22.288 12.8801C22.288 12.5815 22.3813 12.2268 22.568 11.8161C22.792 11.4055 23.3707 10.6775 24.304 9.63212C25.4987 7.87745 26.2267 6.47745 26.488 5.43212C26.7493 4.38679 26.5067 3.80812 25.76 3.69612C25.536 3.62145 25.1253 3.62145 24.528 3.69612C23.968 3.77079 23.3333 3.88279 22.624 4.03212C21.952 4.14412 21.3733 4.27479 20.888 4.42412C20.4027 4.53612 20.16 4.62945 20.16 4.70412C20.16 4.70412 20.16 4.76012 20.16 4.87212C20.16 4.98412 20.0853 5.02145 19.936 4.98412C19.8613 4.98412 19.544 5.13345 18.984 5.43212C18.424 5.73079 17.752 6.12279 16.968 6.60812C16.184 7.09345 15.4 7.57879 14.616 8.06412C13.832 8.54945 13.16 8.97879 12.6 9.35212C12.0773 9.68812 11.7973 9.89345 11.76 9.96812C11.6853 10.3788 11.256 10.7521 10.472 11.0881C9.72533 11.5361 9.03467 12.1895 8.4 13.0481C7.80267 13.9068 7.13067 14.9708 6.384 16.2401C5.74933 17.0988 5.30133 18.0321 5.04 19.0401C4.77867 20.0108 4.77867 20.7948 5.04 21.3921C5.22667 21.9895 5.80533 22.7548 6.776 23.6881C7.74667 24.6215 8.96 25.5175 10.416 26.3761C11.6853 27.0855 12.824 27.7948 13.832 28.5041C14.84 29.1761 15.6613 29.8295 16.296 30.4641C16.968 31.0988 17.416 31.6588 17.64 32.1441C18.088 32.7788 18.4053 33.4321 18.592 34.1041C18.816 34.7388 18.928 35.3548 18.928 35.9521C18.9653 36.5495 18.9093 37.0908 18.76 37.5761C18.4987 38.1735 18.032 38.7895 17.36 39.4241C16.7253 40.0588 16.184 40.3575 15.736 40.3201C15.3253 40.4321 15.008 40.5628 14.784 40.7121C14.5973 40.8615 14.3733 40.9921 14.112 41.1041C13.8507 41.2535 13.2907 41.4028 12.432 41.5521C11.6107 41.7015 10.696 41.7948 9.688 41.8321C8.68 41.9068 7.74667 41.9255 6.888 41.8881Z" fill="black"></path>
</svg>